<?xml version="1.0" encoding="UTF-8"?>
<svg width="240px" height="53px" viewBox="0 0 240 53" version="1.1" xmlns="http://www.w3.org/2000/svg" xmlns:xlink="http://www.w3.org/1999/xlink">
    <!-- Generator: Sketch 51.1 (57501) - http://www.bohemiancoding.com/sketch -->
    <title>Group</title>
    <desc>Created with Sketch.</desc>
    <defs>
        <linearGradient x1="23.7078571%" y1="-17.8575304%" x2="153.951692%" y2="121.926541%" id="linearGradient-1">
            <stop stop-color="#7863DE" offset="0%"></stop>
            <stop stop-color="#4333BB" offset="100%"></stop>
        </linearGradient>
    </defs>
    <g id="Page-1" stroke="none" stroke-width="1" fill="none" fill-rule="evenodd">
        <g id="Curls" transform="translate(-401.000000, -45.000000)" fill="url(#linearGradient-1)">
            <g id="Group" transform="translate(401.000000, 45.000000)">
                <g id="Group-8">
                    <path d="M3.6,19 L24.44,19 L24.44,23.48 L8.52,23.48 L8.52,31.12 L22.64,31.12 L22.64,35.6 L8.52,35.6 L8.52,47 L3.6,47 L3.6,19 Z M30.12,19 L35.04,19 L35.04,47 L30.12,47 L30.12,19 Z M42.52,19 L47.08,19 L62.08,38.36 L62.08,19 L66.92,19 L66.92,47 L62.8,47 L47.36,27.08 L47.36,47 L42.52,47 L42.52,19 Z M74.12,19 L94.88,19 L94.88,23.4 L79.04,23.4 L79.04,30.68 L93.08,30.68 L93.08,35.08 L79.04,35.08 L79.04,42.6 L95.08,42.6 L95.08,47 L74.12,47 L74.12,19 Z M110.72,47.4 C108.559989,47.4 106.493343,47.033337 104.52,46.3 C102.546657,45.566663 100.720008,44.4400076 99.04,42.92 L102,39.4 C103.360007,40.5733392 104.733326,41.4733302 106.12,42.1 C107.506674,42.7266698 109.079991,43.04 110.84,43.04 C112.360008,43.04 113.566662,42.7200032 114.46,42.08 C115.353338,41.4399968 115.8,40.586672 115.8,39.52 L115.8,39.44 C115.8,38.9333308 115.713334,38.4866686 115.54,38.1 C115.366666,37.7133314 115.046669,37.3466684 114.58,37 C114.113331,36.6533316 113.473337,36.3333348 112.66,36.04 C111.846663,35.7466652 110.786673,35.4533348 109.48,35.16 C107.986659,34.7866648 106.660006,34.3866688 105.5,33.96 C104.339994,33.5333312 103.366671,33.0066698 102.58,32.38 C101.793329,31.7533302 101.193335,30.9866712 100.78,30.08 C100.366665,29.1733288 100.16,28.0800064 100.16,26.8 L100.16,26.72 C100.16,25.519994 100.399998,24.420005 100.88,23.42 C101.360002,22.419995 102.019996,21.5666702 102.86,20.86 C103.700004,20.1533298 104.706661,19.600002 105.88,19.2 C107.053339,18.799998 108.333326,18.6 109.72,18.6 C111.773344,18.6 113.619992,18.899997 115.26,19.5 C116.900008,20.100003 118.439993,20.9733276 119.88,22.12 L117.24,25.84 C115.959994,24.906662 114.69334,24.1933358 113.44,23.7 C112.18666,23.2066642 110.920006,22.96 109.64,22.96 C108.199993,22.96 107.080004,23.2799968 106.28,23.92 C105.479996,24.5600032 105.08,25.346662 105.08,26.28 L105.08,26.36 C105.08,26.893336 105.173332,27.3666646 105.36,27.78 C105.546668,28.1933354 105.886664,28.566665 106.38,28.9 C106.873336,29.233335 107.553329,29.5466652 108.42,29.84 C109.286671,30.1333348 110.38666,30.4399984 111.72,30.76 C113.213341,31.1066684 114.519994,31.513331 115.64,31.98 C116.760006,32.446669 117.69333,33.0066634 118.44,33.66 C119.18667,34.3133366 119.753331,35.0666624 120.14,35.92 C120.526669,36.7733376 120.72,37.7866608 120.72,38.96 L120.72,39.04 C120.72,40.3466732 120.473336,41.5199948 119.98,42.56 C119.486664,43.6000052 118.800004,44.4799964 117.92,45.2 C117.039996,45.9200036 115.986673,46.4666648 114.76,46.84 C113.533327,47.2133352 112.186674,47.4 110.72,47.4 Z M132.8,23.56 L123.92,23.56 L123.92,19 L146.64,19 L146.64,23.56 L137.76,23.56 L137.76,47 L132.8,47 L132.8,23.56 Z" id="FINEST"></path>
                    <path d="M185,37.85 C182.85,42.25 181.2,45.25 176.95,48.25 C171.85,51.75 164.75,53.6 157.5,50.5 C144.95,45.2 148.1,27.8 155.05,19.05 C154.25,15.95 153.85,11.3 154.85,7.6 C155.05,6.75 156.1,6.45 155.85,7.85 C155.3,11 155.75,14.65 156.25,17.35 C161.65,10.4 169.15,7.3 177.05,8.2 C196.55,10.4 189.45,34.45 168.85,31.45 C163.65,30.7 159.05,28.35 156.45,22.95 C154.65,25.3 146.45,45.55 159.45,49.55 C164.8,51.15 171.25,50.4 176.2,47.45 C180.55,44.9 182.3,41.65 184.4,37.35 C184.8,36.5 185.5,36.85 185,37.85 Z M177.5,10.1 C170.05,9 162.4,13.8 157.45,21.35 C159.7,27.1 164.15,29.65 169.6,30.25 C187.65,32.25 192.1,12.2 177.5,10.1 Z M202.9,37.8 C201.3,41.2 198.6,46.95 194.95,46.95 C192.7,46.95 191.35,44.6 192.65,40.55 C190.95,43.55 188.35,46.95 185.9,46.95 C184.9,46.95 183.15,46.6 182.75,44.7 C182.3,42.55 183.55,40.7 184.45,38.9 C184.15,38.9 183.7,38.75 184,38.1 L184.9,36.35 C185.9,34.45 186.95,32.4 187.7,30.85 C188.1,30.05 188.7,29.8 189.65,29.8 L192.7,29.8 C191.55,30.65 190.85,31.25 189.5,34 C189.5,34 187.25,38.55 186.35,40.45 C183.95,45.65 186.05,47.65 189.3,43.9 C192.1,40.65 194.85,34.8 196.75,30.85 C197.15,30.05 197.75,29.8 198.7,29.8 L201.4,29.8 C199.95,30.95 199.45,31.65 197.95,34.75 C196.55,37.55 194.9,41 194.6,42.7 C194.15,44.85 194.85,45.65 195.55,45.7 C198,45.7 200.5,40.95 202.2,37.35 C202.6,36.45 203.4,36.8 202.9,37.8 Z M215.85,37.85 C214.4,40.85 211.85,46.15 208.6,46.95 C206.9,47.35 203.85,45.85 205.85,40.65 C206.6,38.6 208.4,36 208.95,34.75 C209.65,33.1 207.9,32.45 205.1,32.4 L204.5,34 C203.3,37.15 200.9,42.7 198.45,45.05 C198.05,45.4 197.75,44.85 198.05,44.4 C202,39.2 204.75,31.65 205.75,26.05 C206.25,23.25 209.5,24.5 208.8,27.85 C208.5,29.25 206.9,30.6 206.05,31.2 C207.9,31.3 210.5,31.25 212.95,31 C213.3,31.7 212.5,33.6 211.9,34.85 C211.15,36.4 206.05,45.55 209.05,45.7 C211.1,45.75 214.2,39.5 215.25,37.35 C215.7,36.5 216.35,36.85 215.85,37.85 Z M228.2,22.35 C225.9,27.5 222.85,32.9 217.95,37.35 C217.7,38.2 217.2,39.4 216.9,40.65 C215.4,46.65 219.4,47.5 222.05,43.8 C223.7,41.45 225.1,38.75 225.75,37.45 C226.2,36.6 226.95,36.7 226.5,37.7 C225.25,40.35 222.65,47.1 217.6,47.1 C212,47.1 214.4,40.25 215.25,37.25 C216.8,31.65 219.95,24.45 222.85,19.6 C226.4,13.65 231.8,14.35 228.2,22.35 Z M227.45,21.6 C228.45,19.3 228.95,15.5 226.25,19.35 C223.8,22.8 219.9,31.75 218.35,35.75 C221.9,32.15 225.5,26.25 227.45,21.6 Z M239.4,37.55 C237.55,41.7 234.55,48.4 228.9,46.7 C228.2,47 227.5,47.2 226.85,47.2 C220.8,47.2 221.95,40.25 224.35,40.15 C225.7,37.6 227.35,34.35 228.65,31.5 C229.55,29.55 231.05,27.45 232.8,27.2 C233.55,27.1 234.15,27.2 234.65,27.45 C235.55,27.9 235.35,28.75 234.45,28.3 C233.95,28.1 233.35,28 232.85,28.25 C230.55,29.35 231.05,32.8 231.8,34.6 C232.6,36.5 233.7,38.3 233.6,40.5 C233.5,42.45 232,44.75 230.05,46.05 L230.4,46.1 C232.1,46.35 233.65,45.3 234.9,43.8 C236.05,42.4 237.6,39.3 238.65,37.25 C238.9,36.75 239.65,37.05 239.4,37.55 Z M230.55,40.5 C230.7,37.35 229.5,33.25 229.9,31 C228.55,33.7 226.4,38.05 225.2,40.25 C225.2,40.25 226.3,40.2 226.25,41.85 C226.15,43.75 227.2,45.15 228.35,45.7 C229.45,44.85 230.4,43.15 230.55,40.5 Z M227.5,46.15 C226.45,45.5 225.6,44.3 225.5,42.4 C223.9,44 224.55,46.35 226.5,46.35 C226.85,46.35 227.2,46.3 227.5,46.15 Z" id="Curls"></path>
                    <path d="M4.0078125,13 L4.0078125,2.2109375 L0.375,2.2109375 L0.375,0.875 L9.2265625,0.875 L9.2265625,2.2109375 L5.5859375,2.2109375 L5.5859375,13 L4.0078125,13 Z M10.5859375,13 L10.5859375,0.875 L12.1640625,0.875 L12.1640625,6.09375 L16.6484375,6.09375 L16.6484375,0.875 L18.21875,0.875 L18.21875,13 L16.6484375,13 L16.6484375,7.3046875 L12.1640625,7.3046875 L12.1640625,13 L10.5859375,13 Z M27.3359375,11.6640625 L27.3359375,13 L20.7890625,13 L20.7890625,0.875 L27.2109375,0.875 L27.2109375,2.09375 L22.3671875,2.09375 L22.3671875,6.2109375 L26.7265625,6.2109375 L26.7265625,7.421875 L22.3671875,7.421875 L22.3671875,11.6640625 L27.3359375,11.6640625 Z" id="THE"></path>
                </g>
            </g>
        </g>
    </g>
</svg>